<?xml version="1.0" standalone="no"?><!DOCTYPE svg PUBLIC "-//W3C//DTD SVG 1.1//EN" "http://www.w3.org/Graphics/SVG/1.1/DTD/svg11.dtd"><svg t="1753623602640" class="icon" viewBox="0 0 1024 1024" version="1.1" xmlns="http://www.w3.org/2000/svg" p-id="80405" xmlns:xlink="http://www.w3.org/1999/xlink" width="200" height="200"><path d="M226.645 179.132l163.397 72.362-259.55 193.127V241.732a68.471 68.471 0 0 1 96.153-62.6z" fill="#BECADD" p-id="80406"></path><path d="M182.682 254.703v94.618l98.304-83.286-69.598-30.174a20.548 20.548 0 0 0-28.706 18.842z" fill="#E4E9F2" p-id="80407"></path><path d="M793.873 179.132l-163.362 72.362 259.516 193.127V241.732a68.471 68.471 0 0 0-96.154-62.6z" fill="#BECADD" p-id="80408"></path><path d="M198.963 173.26c9.558 0 18.978 2.015 27.716 5.872l163.363 72.362-259.55 193.127V241.732c0-37.82 30.651-68.471 68.471-68.471z m0 27.376c-21.265 0-38.775 16.179-40.892 36.864l-0.204 4.232v148.344l178.176-132.574-120.491-53.35a41.062 41.062 0 0 0-12.322-3.277l-4.267-0.24zM821.59 173.26a68.473 68.473 0 0 0-27.716 5.87l-163.362 72.363 259.516 193.127V241.732a68.471 68.471 0 0 0-68.438-68.471z m0 27.375c21.265 0 38.742 16.179 40.858 36.864l0.205 4.232v148.344L684.476 257.468l120.49-53.317c3.926-1.706 8.09-2.833 12.323-3.276l4.3-0.24z" fill="#333333" p-id="80409"></path><path d="M838.52 255.761v104.277L737.62 270.916l71.68-33.723a20.548 20.548 0 0 1 29.253 18.568z" fill="#E4E9F2" p-id="80410"></path><path d="M116.19 530.193a393.66 325.188 0 1 0 787.32 0 393.66 325.188 0 1 0-787.32 0z" fill="#E4E9F2" p-id="80411"></path><path d="M502.033 545.314c122.88 0 230.298 98.031 230.298 258.73v-5.529c-63.318 35.874-139.947 56.866-222.481 56.866s-159.164-20.992-222.447-56.866c2.048-157.423 93.15-253.2 214.63-253.2z" fill="#FFFFFF" p-id="80412"></path><path d="M509.85 205.005c3.55 0 7.1 0 10.65 0.102l8.737 0.273c-1.945 69.393-36.59 141.415-109.329 198.247-94.959 74.24-210.944 93.73-294.912 57.992C163.09 314.95 320.922 205.005 509.85 205.005zM868.147 435.78c40.824 152.576 1.741 265.216-117.248 337.92-118.989 72.738-266.752 76.288-443.221 10.684 191.488 31.061 334.848 6.144 429.91-74.752 95.095-80.828 138.615-172.134 130.56-273.852z" fill="#BECADD" p-id="80413"></path><path d="M509.85 205.005c217.429 0 393.66 145.578 393.66 325.188S727.244 855.381 509.85 855.381c-217.43 0-393.66-145.578-393.66-325.188s176.23-325.188 393.66-325.188z m0 27.375c-203.333 0-366.251 134.622-366.251 297.813s162.918 297.813 366.25 297.813c203.299 0 366.251-134.621 366.251-297.813S713.148 232.38 509.85 232.38z" fill="#333333" p-id="80414"></path><path d="M355.806 444.62q34.236 0 34.236 34.237v34.235q0 34.236-34.236 34.236t-34.236-34.236v-34.235q0-34.236 34.236-34.236zM663.893 444.62q34.236 0 34.236 34.237v34.235q0 34.236-34.236 34.236-34.235 0-34.235-34.236v-34.235q0-34.236 34.235-34.236zM256.614 550.741a13.687 13.687 0 0 1 2.458 27.136l-2.458 0.24H81.92a13.687 13.687 0 0 1-2.458-27.17l2.458-0.206h174.66z m-34.406 65.844a13.687 13.687 0 0 1 15.633 22.289l-2.253 1.57-129.809 72.84a13.687 13.687 0 0 1-15.701-22.289l2.287-1.604 129.809-72.806z m715.298-65.844a13.687 13.687 0 0 1 2.458 27.136l-2.458 0.24h-170.94a13.687 13.687 0 0 1-2.457-27.17l2.457-0.206h170.94z m-166.093 76.015a13.687 13.687 0 0 1 15.804-7.1l2.594 0.99 136.943 68.438a13.687 13.687 0 0 1-9.66 25.497l-2.594-1.024-136.943-68.437a13.687 13.687 0 0 1-6.144-18.364z m-173.465-26.59a13.687 13.687 0 0 1 10.376 16.35c-7.714 34.236-28.194 53.248-59.323 53.248-17.989 0-32.734-5.017-43.555-14.711l-2.218-2.219-0.273 0.376c-9.319 9.83-22.938 15.36-40.107 16.384l-5.837 0.136c-32.563 0-53.862-18.91-61.303-53.316a13.687 13.687 0 0 1 26.76-5.803c4.813 22.323 15.429 31.744 34.543 31.744 19.73 0 28.911-6.28 31.812-20.104 2.902-13.654 21.982-14.78 26.386-1.502 4.983 14.848 15.189 21.606 33.792 21.606 17.408 0 27.545-9.386 32.597-31.846a13.687 13.687 0 0 1 13.892-10.684l2.458 0.341z" fill="#333333" p-id="80415"></path><path d="M502.033 579.55c18.91 0 34.236-7.68 34.236-17.135 0-9.42-15.36-17.1-34.236-17.1-18.91 0-34.236 7.68-34.236 17.1 0 9.455 15.326 17.135 34.236 17.135z" fill="#FF8A8A" p-id="80416"></path><path d="M792.303 382.908a17.067 17.067 0 0 1-26.829 21.094c-35.055-44.544-74.41-72.977-118.17-85.811a17.067 17.067 0 0 1 9.592-32.768c50.995 14.95 96.188 47.616 135.407 97.485z" fill="#F5F9FF" p-id="80417"></path></svg>